<?xml version="1.0" encoding="utf-8"?>
<!-- Generator: Adobe Illustrator 28.0.0, SVG Export Plug-In . SVG Version: 6.00 Build 0)  -->
<svg version="1.1" id="Alt" xmlns="http://www.w3.org/2000/svg" xmlns:xlink="http://www.w3.org/1999/xlink" x="0px" y="0px"
	 viewBox="0 0 1813.2 932" enable-background="new 0 0 1813.2 932" xml:space="preserve">
<g id="Kort">
	<g>
		
			<image overflow="visible" width="2417" height="1242" xlink:href="../../../Pictures/Screenshots/Skærmbillede 2025-02-06 110304.png"  transform="matrix(0.75 0 0 0.75 0.5 0.5)">
		</image>
		<rect x="1" y="1.4" fill="#CECECE" width="1810.5" height="930.2"/>
		<path fill="#B5B5B5" d="M798,909c4.6,3.2,15.2,9.6,30,10c8,0.2,14.6-1.5,19-3c267.7-305,535.3-610,803-915c18.3,0,36.7,0,55,0
			c-272.3,310.3-544.7,620.7-817,931c-69,0-138,0-207,0C454.3,654.3,227.7,376.7,1,99C1,66.3,1,33.7,1,1
			C266.7,303.7,532.3,606.3,798,909z"/>
		<path fill="#919191" d="M450,238c-11.7-12.3-23.3-24.7-35-37c-4-3.3-8-6.7-12-10c15.7-17.3,31.3-34.7,47-52
			c8.7,8.3,17.3,16.7,26,25c5.7-4.3,11.3-8.7,17-13c6.7,5.3,13.3,10.7,20,16c-4.3,6-8.7,12-13,18c4.7,4.7,9.3,9.3,14,14
			c0.3,6.3,0.7,12.7,1,19c-8.7,8.3-17.3,16.7-26,25c1.7,1.3,3.3,2.7,5,4c-0.7,5.3-1.3,10.7-2,16c-26.7,22-53.3,44-80,66
			c-2.7-16-5.3-32-8-48C419.3,266.7,434.7,252.3,450,238z"/>
		<path fill="#919191" d="M187,131c-7.3-1.7-14.7-3.3-22-5C128.7,84,92.3,42,56,0c31.7,0,63.3,0,95,0c11,16,22,32,33,48
			c14.7-16,29.5-32,44.2-48c25.6,0,51.2,0,76.8,0C265.7,43.7,226.3,87.3,187,131z"/>
		<path fill="#919191" d="M401,135c-9.2,8.5-18.3,17-27.5,25.5c-17.5-15.8-35-31.7-52.5-47.5c24.7-26.3,49.3-52.7,74-79
			c15.7,17.3,31.3,34.7,47,52c-8.3,10.3-16.7,20.7-25,31c4.7,4.7,9.3,9.3,14,14c-4,5.3-8,10.7-12,16C413,143,407,139,401,135z"/>
		<path fill="#919191" d="M472,80c-5.4-3.1-10.8-6.3-16.2-9.4c-4.6,5.1-9.2,10.3-13.8,15.4c-14.7-16.3-29.3-32.7-44-49
			c9-12.3,18-24.7,27-37c44,0,88,0,132,0C528.7,26.7,500.3,53.3,472,80z"/>
		<path fill="#919191" d="M339,209c3.3-2,6.7-4,10-6c5.8-0.8,13.4-1,16,3c1.6,2.5,0.2,4.9,0,11c-0.1,1.9-0.6,17,5.4,19.9
			c4.8,2.3,9.1-5.5,16.6-3.9c5.6,1.2,10.8,7.3,11,13c0.3,7.8-8.8,10.4-9.4,17.2c-0.4,4.7,3.2,11.8,22.4,21.8c-1.3,2.5-4.8,10.1-3,20
			c1.5,8.4,6,13.9,8,16c-15,14.7-30,29.3-45,44c-23.6-24.8-48.3-53.1-73-85c-20.3-26.2-38.2-51.7-54-76c27-29.3,54-58.7,81-88
			c18.3,16.3,36.7,32.7,55,49c-7.7,7.7-15.3,15.3-23,23c-5,1-10,2-15,3c-2.7-0.3-5.3-0.7-8-1c-0.6,1.6-1.2,4-1,7
			C333.5,203.6,337.8,207.9,339,209z"/>
		<path fill="#919191" d="M440,448c-23-27.7-46-55.3-69-83c15-14.7,30-29.3,45-44c7.7,12.7,15.3,25.3,23,38
			c8.3,14.7,16.7,29.3,25,44c-7.7,8.7-15.3,17.3-23,26C440.7,435.3,440.3,441.7,440,448z"/>
		<path fill="#919191" d="M506,411c26.7,28.3,53.3,56.7,80,85c-18.7,13.7-37.3,27.3-56,41c-30-29.7-60-59.3-90-89
			c0.3-6.3,0.7-12.7,1-19c7.7-8.7,15.3-17.3,23-26c-3-5.3-6-10.7-9-16c27.7-19,55.3-38,83-57c11,12.3,22,24.7,33,37
			C549.3,381.7,527.7,396.3,506,411z"/>
		<path fill="#919191" d="M583,619c-19.5-26.2-39-52.3-58.5-78.5c22.2-16.5,45.1-33,68.5-49.5c39.6-27.9,78.7-54.2,117-79
			c17.3,21.7,34.7,43.3,52,65C702.3,524.3,642.7,571.7,583,619z"/>
		<path fill="#919191" d="M781,465c-52.3-61-104.7-122-157-183c23.7-22,47.3-44,71-66c8.7,1.3,17.3,2.7,26,4c-1,7.7-2,15.3-3,23
			c44.3,54.7,88.7,109.3,133,164C827.7,426.3,804.3,445.7,781,465z"/>
		<path fill="#919191" d="M880,692c-45.3,37-90.7,74-136,111c-36-45.3-72-90.7-108-136c57-48.3,114-96.7,171-145c16,22,32,44,48,66
			c-40.7,30.7-81.3,61.3-122,92c15.3,15.7,30.7,31.3,46,47c26-22,52-44,78-66C864.7,671.3,872.3,681.7,880,692z"/>
		<path fill="#919191" d="M997,576c-19,19.7-38,39.3-57,59c-35.7-44.7-71.3-89.3-107-134c20-14.7,40-29.3,60-44
			C927.7,496.7,962.3,536.3,997,576z"/>
		<path fill="#919191" d="M834,882c-7.3,0-14.7,0-22,0c-23.8-25.8-47.7-51.7-71.5-77.5c20.8-16.5,41.7-33,62.5-49.5
			c4.7,7,9.3,14,14,21c9,0.3,18,0.7,27,1c15.7,17.3,31.3,34.7,47,52C872,846.7,853,864.3,834,882z"/>
		<path fill="#919191" d="M894,833c-16.5-18.5-33-37-49.5-55.5C1068.3,518.3,1292.2,259.2,1516,0c29.3,0,58.7,0,88,0
			C1367.3,277.7,1130.7,555.3,894,833z"/>
		<path fill="#919191" d="M688,130c-29.7-23.7-59.3-47.3-89-71c13-19.3,26-38.7,39-58c33.7,0,67.3,0,101,0
			c-18.3,22.7-36.7,45.3-55,68c6.7,7,13.3,14,20,21C698.7,103.3,693.3,116.7,688,130z"/>
		<path fill="#919191" d="M763,177c-3-3.7-6-7.3-9-11c31.3-28.3,62.7-56.7,94-85c9,15,18,30,27,45c50.3-41.7,100.7-83.3,151-125
			c21,0,42,0,63,0c30.7,34,61.3,68,92,102c-42.7,39-85.3,78-128,117c31,33.7,62,67.3,93,101c-18.5,17.3-37,34.5-55.5,51.8
			c10.8,12.4,21.7,24.8,32.5,37.2c-36,30-72,60-108,90c-89.7-101.3-179.3-202.7-269-304C751.7,189.7,757.3,183.3,763,177z"/>
		<path fill="#919191" d="M1284,135c-29.3-36.3-58.7-72.7-88-109c10.7-8.7,21.3-17.3,32-26c73,0,146,0,219,0
			C1392.7,45,1338.3,90,1284,135z"/>
		<path fill="#919191" d="M1193,737c-20.7-15-41.3-30-62-45c200-230.7,400-461.3,600-692c19,1,38,2,57,3
			C1589.7,247.7,1391.3,492.3,1193,737z"/>
		<path fill="#7CCE7C" d="M0,932c0-168.3,0-336.7,0-505c0-96.7,0-193.3,0-290c213.7,265,427.3,530,641,795
			C427.3,932,213.7,932,0,932z"/>
		<path fill="#919191" d="M1512.5,651.5c-37.3,54.7-74.7,109.3-112,164c121.3-1.3,242.7-2.7,364-4c1.3,27.3,2.7,54.7,4,82
			c-169,2.3-338,4.7-507,7c-31,0.3-62,0.7-93,1c-65.7,2.3-131.3,4.7-197,7c38.7-47,77.3-94,116-141c48.3,9.3,96.7,18.7,145,28
			c30.2-40.3,60.4-80.5,90.7-120.8c-4.2-5.4-8.4-10.8-12.7-16.2c21.3-31,42.7-62,64-93c13.7,0.7,27.3,1.3,41,2
			c10-17.7,20-35.3,30-53c-3.3-4-6.7-8-10-12c8.9-10.5,17.9-20.9,26.8-31.4c6.7-3.5,13.5-7.1,20.2-10.6c31-40.7,62-81.3,93-122
			c60-76,120-152,180-228c-6.7,88.7-13.3,177.3-20,266C1661.2,468.2,1586.8,559.8,1512.5,651.5z"/>
	</g>
</g>
<g id="Points">
	<circle id="punkt6" fill="#FC5454" cx="318.5" cy="430.5" r="46"/>
	<circle id="punkt5" fill="#FC5454" cx="786.5" cy="240.5" r="46"/>
	<circle id="punkt4" fill="#FC5454" cx="1056.5" cy="97.5" r="46"/>
	<circle id="punkt3" fill="#FC5454" cx="1036.5" cy="384.5" r="46"/>
	<circle id="punkt2" fill="#FC5454" cx="654.5" cy="51.5" r="46"/>
	<circle id="punkt1" fill="#FC5454" cx="1320.5" cy="59.5" r="46"/>
</g>
</svg>
